<svg width="654" height="790" viewBox="0 0 654 790" fill="none" xmlns="http://www.w3.org/2000/svg">
<path fill-rule="evenodd" clip-rule="evenodd" d="M348.59 3.41449C332.514 10.5765 316.396 20.8665 303.655 32.1035C299.971 35.3525 292.138 44.3985 286.249 52.2035C280.36 60.0095 273.689 68.6465 271.425 71.3965C264.656 79.6165 261.691 83.8965 262.767 83.8965C263.325 83.8965 270.117 80.6985 277.859 76.7885L291.937 69.6815L299.399 60.3075C307.518 50.1095 316.304 42.2965 327.607 35.2235C335.287 30.4185 338.562 30.0525 337.291 34.1415C336.906 35.3815 334.806 39.9615 332.625 44.3185C330.443 48.6755 326.936 57.2255 324.83 63.3185C322.724 69.4115 320.726 75.1035 320.389 75.9685C319.96 77.0705 321.54 78.9265 325.667 82.1685C339.292 92.8735 358.379 118.359 369.751 141.031C375.336 152.166 376.5 155.636 381.441 175.896C384.459 188.271 391.862 213.814 397.891 232.656C409.838 269.99 410.52 273.711 406.761 281.078C402.41 289.606 391.152 299.528 383.081 301.946C375.269 304.287 366.133 299.112 361.992 290.001L360.354 286.396L360.047 291.896C359.878 294.921 359.361 297.778 358.897 298.245C357.344 299.812 354.032 297.844 352.938 294.706C351.2 289.72 351.557 278.881 353.532 276.699C355.12 274.945 355.02 274.644 351.685 271.121C349.747 269.072 345.699 263.796 342.689 259.396C339.68 254.996 334.661 247.861 331.536 243.541C326.958 237.211 325.854 234.934 325.854 231.814C325.854 228.761 326.397 227.587 328.419 226.262L330.984 224.581L328.891 222.489C327.023 220.621 325.272 220.339 312.576 219.864C298.363 219.333 298.349 219.33 289.709 215.137C274.214 207.616 265.669 197.454 261.725 181.859C259.892 174.612 259.668 171.614 260.154 160.899C260.869 145.16 262.59 139.209 274.617 110.896C276.084 107.443 270.127 112.84 263.488 120.979C250.97 136.325 243.854 154.857 243.854 172.11C243.854 188.383 248.115 201.318 257.246 212.761C265.463 223.061 272.579 227.658 286.854 231.895C296.508 234.76 300.939 237.04 308.498 243.031C319.247 251.55 325.516 259.113 339.882 280.896C344.371 287.703 344.829 288.932 344.841 294.196C344.864 304.425 350.247 310.478 360.589 311.907C363.76 312.345 369.445 313.883 373.223 315.326C379.618 317.768 380.504 317.869 386.04 316.78C393.638 315.285 402.006 309.92 407.807 302.825C410.248 299.839 415.312 294.176 419.061 290.241C426.202 282.744 428.854 278.039 428.854 272.866C428.854 268.415 421.201 245.507 409.32 214.396C397.083 182.352 392.42 167.432 389.787 151.896C388.715 145.571 387.389 139.086 386.841 137.484C386.293 135.882 386 134.417 386.19 134.227C386.739 133.679 398.687 153.151 400.612 157.731C402.434 162.066 403.856 163.126 403.851 160.146C403.842 154.337 401.289 139.231 399.162 132.396C395.841 121.726 388.43 107.769 380.955 98.1065C377.599 93.7685 374.854 89.8945 374.854 89.4985C374.854 87.3975 391.258 100.588 399.894 109.633C405.372 115.371 409.854 119.825 409.854 119.533C409.854 119.24 408.455 115.135 406.746 110.411C401.263 95.2585 388.852 79.0355 375.344 69.3665C368.62 64.5525 351.483 55.8965 348.677 55.8965C347.674 55.8965 346.854 55.4685 346.854 54.9445C346.854 52.6995 366.608 41.4895 369.506 42.0895C370.624 42.3215 369.989 43.9405 366.921 48.6805C364.684 52.1365 362.854 55.3875 362.854 55.9045C362.854 57.0315 368.146 59.8965 370.227 59.8965C371.036 59.8965 373.75 57.5515 376.258 54.6855C387.233 42.1385 396.296 14.8965 389.495 14.8965C388.786 14.8965 384.864 17.4045 380.78 20.4705C374.052 25.5205 353.182 36.5575 352.205 35.5815C351.984 35.3605 352.623 33.2035 353.623 30.7885C357.623 21.1365 363.132 3.06349 362.543 1.52749C361.573 -1.00051 357.159 -0.403506 348.59 3.41449ZM278.354 40.5945C245.477 48.2485 231.928 53.0635 200.354 68.3145C163.97 85.8885 140.441 101.577 114.105 125.822C61.061 174.652 21.72 241.925 7.92301 307.396C1.46201 338.059 -0.718986 360.512 0.201014 386.896C1.69301 429.682 9.12802 463.551 24.973 499.745C38.357 530.316 58.736 560.452 82.781 585.23C91.253 593.96 102.855 603.771 102.853 602.204C102.852 601.301 96.414 590.474 86.912 575.396C52.713 521.131 33.843 475.038 25.504 425.396C14.087 357.433 24.484 290.542 56.357 226.896C64.031 211.572 78.247 188.419 87.671 175.896C103.936 154.283 127.932 128.466 143.574 115.749C149.116 111.244 145.163 115.605 129.831 130.911C117.984 142.738 104.497 157.312 99.831 163.329C69.343 202.647 51.801 241.294 42.44 289.767C38.725 309.005 37.595 320.691 37.544 340.396C37.357 412.457 65.919 474.235 116.019 510.131C123.193 515.272 140.619 524.829 145.556 526.331C146.785 526.705 141.481 520.659 133.556 512.654C116.322 495.244 108.207 484.099 98.418 464.396C83.336 434.04 74.904 397.263 73.311 354.896L72.728 339.396L76.768 347.727C88.402 371.716 107.771 391.478 131.697 403.766C140.729 408.405 153.916 413.896 156.024 413.896C156.537 413.896 152.546 410.373 147.155 406.065C117.539 382.4 98.657 353.419 87.942 315.187C82.389 295.372 81.425 288.169 81.417 266.396C81.411 249.637 81.774 244.577 83.658 235.169C93.679 185.117 127.421 138.166 183.205 96.6495C210.379 76.4265 240.732 60.4935 270.354 50.9035C277.713 48.5215 279.821 47.1485 283.03 42.6465L284.99 39.8965L282.672 40.0125C281.397 40.0765 279.454 40.3385 278.354 40.5945ZM246.354 74.1835C184.098 106.418 135.428 151.15 113.387 196.389C102.3 219.147 98.084 236.085 97.208 261.396C96.561 280.095 97.66 289.518 102.456 306.396C112.733 342.559 139.242 370.585 173.873 381.902C202.85 391.371 226.756 391.027 278.969 380.388C308.191 374.434 317.091 373.463 342.354 373.471C366.918 373.478 374.857 374.417 393.354 379.498C419.001 386.544 442.527 400.182 458.579 417.31C473.448 433.174 481.294 448.978 485.432 471.396C489.1 491.273 485.407 519.816 476.244 542.396C473.789 548.446 471.508 554.071 471.174 554.896C470.082 557.596 480.875 546.55 485.831 539.896C494.35 528.459 501.209 512.491 504.947 495.396C506.384 488.824 506.81 464.455 505.585 458.927C504.1 452.225 506.595 457.419 508.692 465.396C517.078 497.284 511.234 531.075 492.454 559.285C479.349 578.969 457.742 597.744 412.354 628.884C384.697 647.859 369.629 659.483 350.731 676.42C326.031 698.556 306.371 724.445 293.661 751.568C289.315 760.84 283.854 776.164 283.854 779.084C283.854 782.354 287.806 781.121 291.668 776.646C301.542 765.206 323.629 743.673 334.354 735.032C360.953 713.602 381.441 700.979 430.354 675.878C454.795 663.336 469.514 655.309 481.354 648.065C513.441 628.433 536.629 603.863 548.522 576.896C552.946 566.865 552.758 570.564 548.228 582.69C532.829 623.905 509.529 649.703 456.354 684.414C399.477 721.54 382.93 733.282 367.13 747.724C358.148 755.934 348.56 767.22 341.894 777.433C336.907 785.071 335.874 788.172 337.897 789.423C338.47 789.777 344.433 786.476 351.147 782.086C378.916 763.928 399.429 756.08 462.366 739.539C506.311 727.99 529.533 717.346 551.671 698.607C572.026 681.376 587.295 658.088 596.42 630.358C603.555 608.675 605.198 596.723 604.524 571.396C603.929 549.04 602.548 539.837 597.351 523.615C594.626 515.109 588.296 501.288 586.664 500.279C586.094 499.928 586.048 502.168 586.543 506.05C586.989 509.54 587.334 522.296 587.309 534.396C587.274 551.441 586.865 558.31 585.493 564.896C581.483 584.148 574.291 601.745 565.059 614.896C559.65 622.601 548.617 635.993 548.101 635.477C547.902 635.278 549.359 632.584 551.338 629.49C561.18 614.104 571.1 587.608 575.048 566.167C578.17 549.207 578.179 518.38 575.066 501.789C572.102 485.993 567.964 473.66 560.831 459.367C545.943 429.535 518.174 401.8 485.854 384.484C481.179 381.979 477.647 379.922 478.005 379.913C479.442 379.876 500.883 388.883 508.854 392.873C521.67 399.287 543.966 414.454 556.686 425.409C602.937 465.243 628.437 523.877 623.976 580.134C621.956 605.611 616.335 626.359 605.483 648.396C598.264 663.056 592.287 672.032 579.604 687.258C574.792 693.035 570.854 698.023 570.854 698.34C570.854 699.611 587.716 690.337 594.317 685.435C603.179 678.855 616.139 665.685 623.923 655.35C631.189 645.702 641.676 624.863 645.838 611.797C650.136 598.305 651.694 590.377 653.055 575.097C657.722 522.657 635.529 468.369 591.428 424.346C562.522 395.492 532.58 376.436 494.854 362.883C471.091 354.346 447.419 350.088 418.854 349.211C390.62 348.345 368.325 350.385 324.835 357.811C291.941 363.429 275.625 365.19 256.354 365.202C216.116 365.229 188.722 356.057 165.363 334.737C159.293 329.198 150.462 317.978 147.384 311.896L145.613 308.396L149.984 312.896C157.213 320.337 176.537 332.347 187.857 336.434C198.875 340.411 215.236 345.088 225.354 347.152C235.084 349.137 239.125 349.382 260.354 349.279C278.066 349.192 285.795 348.774 289.854 347.683C296.253 345.964 297.164 346.307 275.903 342.42C219.64 332.133 172.388 299.425 155.318 258.95C149.326 244.745 147.385 235.057 147.492 219.896C147.603 204.171 149.031 196.71 154.783 181.821C168.516 146.267 196.323 114.883 244.854 80.1675C251.179 75.6425 257.479 71.0405 258.854 69.9405C263.575 66.1635 258.544 67.8715 246.354 74.1835ZM355.595 79.6715C358.478 81.7205 363.766 87.1485 367.345 91.7335C374.909 101.423 376.263 106.332 369.051 97.9165C366.468 94.9025 360.787 88.7155 356.427 84.1665C352.067 79.6185 348.917 75.9075 349.427 75.9215C349.937 75.9355 352.713 77.6235 355.595 79.6715ZM242.275 114.143C234.962 118.967 222.296 131.37 215.85 140.021C204.731 154.942 195.61 176.208 192.742 193.896C191.025 204.487 191.035 222.998 192.763 232.896C197.32 259 211.055 284.958 230.854 304.884C238.941 313.023 253.589 324.495 254.601 323.482C254.773 323.31 250.825 316.695 245.827 308.783C234.856 291.413 223.132 268.238 218.917 255.587C215.011 243.863 211.854 227.719 211.854 219.472C211.854 211.084 214.376 198.112 217.547 190.191C218.952 186.682 220.309 184.019 220.564 184.273C220.818 184.528 220.2 188.26 219.19 192.566C217.716 198.852 217.36 204.441 217.382 220.896C217.418 247.101 218.752 251.863 231.381 270.896C235.632 277.302 242.672 284.843 241.626 281.87C239.521 275.89 238.448 266.485 238.434 253.896C238.416 237.54 239.918 231.389 246.411 221.24C248.304 218.279 249.854 215.684 249.854 215.473C249.854 215.261 248.377 212.458 246.573 209.243C235.381 189.305 232.997 175.106 237.321 154.146C238.03 150.709 238.272 147.896 237.859 147.896C236.804 147.896 229.956 155.49 225.912 161.146C224.044 163.759 222.153 165.896 221.71 165.896C220.511 165.896 226.088 151.381 231.175 141.26C235.093 133.464 241.723 122.093 247.276 113.646C249.647 110.039 248.291 110.175 242.275 114.143ZM332.854 137.113C332.854 137.782 333.498 140.145 334.285 142.364C335.072 144.582 335.983 147.645 336.31 149.171C337.298 153.781 343.359 159.577 349.167 161.463C352.02 162.389 355.283 163.99 356.418 165.021C360.018 168.29 360.854 167.41 360.854 160.347C360.854 147.962 356.542 143.125 340.932 138.001C333.476 135.553 332.854 135.484 332.854 137.113ZM381.299 255.958C379.748 257.672 379.354 259.578 379.354 265.379C379.354 272.201 379.596 273.005 383.261 278.326C386.524 283.063 387.596 283.949 389.761 283.697C393.692 283.241 396.111 277.836 395.468 270.952C395.079 266.795 394.057 264.196 391.144 259.952C386.906 253.777 384.248 252.7 381.299 255.958ZM295.548 481.037C287.783 493.203 283.075 505.869 280.227 522.26C278.003 535.057 278.784 562.372 281.79 576.896C287.884 606.353 302.782 637.002 322.74 661.146C326.718 665.959 330.297 669.896 330.693 669.896C331.088 669.896 334.324 666.943 337.883 663.333C341.442 659.723 347.38 654.282 351.079 651.24L357.804 645.711L347.011 635.053C315.745 604.181 298.938 569.933 294.742 528.542C293.372 515.028 294.558 497.73 297.77 484.401C298.829 480.004 299.532 476.242 299.332 476.042C299.132 475.842 297.43 478.089 295.548 481.037Z" fill="white"/>
</svg>
